<svg xmlns="http://www.w3.org/2000/svg" viewBox="0 0 32 32">
  <!-- 8-bit pixel art chick favicon -->
  <!-- Background -->
  <rect width="32" height="32" fill="#1a1a2e"/>

  <!-- Head -->
  <rect x="12" y="4" width="4" height="4" fill="#ffdd00"/>
  <rect x="16" y="4" width="4" height="4" fill="#ffdd00"/>
  <rect x="8" y="8" width="4" height="4" fill="#ffdd00"/>
  <rect x="12" y="8" width="4" height="4" fill="#ffee44"/>
  <rect x="16" y="8" width="4" height="4" fill="#ffee44"/>
  <rect x="20" y="8" width="4" height="4" fill="#ffdd00"/>

  <!-- Eyes -->
  <rect x="10" y="12" width="4" height="4" fill="#000"/>
  <rect x="18" y="12" width="4" height="4" fill="#000"/>
  <rect x="14" y="12" width="4" height="4" fill="#ffee44"/>
  <rect x="8" y="12" width="2" height="4" fill="#ffdd00"/>
  <rect x="22" y="12" width="2" height="4" fill="#ffdd00"/>

  <!-- Beak -->
  <rect x="14" y="16" width="4" height="4" fill="#ff6600"/>

  <!-- Body -->
  <rect x="6" y="20" width="4" height="4" fill="#ffdd00"/>
  <rect x="10" y="20" width="4" height="4" fill="#ffee44"/>
  <rect x="14" y="20" width="4" height="4" fill="#ffee44"/>
  <rect x="18" y="20" width="4" height="4" fill="#ffee44"/>
  <rect x="22" y="20" width="4" height="4" fill="#ffdd00"/>

  <rect x="8" y="24" width="4" height="4" fill="#ffdd00"/>
  <rect x="12" y="24" width="4" height="4" fill="#ffee44"/>
  <rect x="16" y="24" width="4" height="4" fill="#ffee44"/>
  <rect x="20" y="24" width="4" height="4" fill="#ffdd00"/>

  <!-- Feet -->
  <rect x="10" y="28" width="4" height="4" fill="#ff6600"/>
  <rect x="18" y="28" width="4" height="4" fill="#ff6600"/>
</svg>
